<svg xmlns="http://www.w3.org/2000/svg" fill="none" viewBox="0 0 512 512" id="Text-To-Speech--Streamline-Outlined-Material"
     height="512" width="512">
    <path fill="#788bfe"
          d="M74.66666666666666 469.3333333333333c-8.799999999999999 0 -16.332479999999997 -3.1338666666666666 -22.59733333333333 -9.402666666666665C45.80085333333333 453.6661333333333 42.666666666666664 446.1333333333333 42.666666666666664 437.3333333333333V74.66666666666666c0 -8.799999999999999 3.1341866666666665 -16.334186666666668 9.402666666666665 -22.602666666666668C58.33418666666666 45.79914666666666 65.86666666666666 42.666666666666664 74.66666666666666 42.666666666666664h184.53333333333333l-32 32H74.66666666666666v362.66666666666663h256v-58.666666666666664h32V437.3333333333333c0 8.799999999999999 -3.1328 16.3328 -9.397333333333332 22.59733333333333C347.00053333333335 466.1994666666667 339.46666666666664 469.3333333333333 330.66666666666663 469.3333333333333H74.66666666666666Zm53.33333333333333 -90.66666666666666v-32h149.33333333333331v32H128Zm0 -64v-32h106.66666666666666v32H128Zm202.66666666666666 5.333333333333333 -85.33333333333333 -85.33333333333333h-74.66666666666666V128h74.66666666666666l85.33333333333333 -85.33333333333333v277.3333333333333Zm32 -49.06666666666666V86.39999999999999c19.911466666666666 7.466666666666666 35.5552 20.621866666666666 46.93333333333334 39.46666666666667 11.378133333333333 18.8448 17.066666666666666 37.33333333333333 17.066666666666666 55.46666666666667 0 18.133333333333333 -6.221866666666667 36.08853333333333 -18.666666666666664 53.86666666666666 -12.4448 17.778133333333333 -27.5552 29.688533333333332 -45.33333333333333 35.733333333333334Zm0 75.73333333333332v-33.06666666666666c24.88853333333333 -8.888533333333333 47.11146666666666 -24.88853333333333 66.66666666666666 -48C448.8885333333333 242.48853333333332 458.66666666666663 214.4 458.66666666666663 181.33333333333331c0 -33.06666666666666 -9.778133333333333 -61.155199999999994 -29.333333333333332 -84.26666666666667 -19.5552 -23.111146666666663 -41.77813333333333 -39.11114666666666 -66.66666666666666 -48V16c36.266666666666666 9.6 66.66666666666666 29.599999999999998 91.2 60C478.4 106.39999999999999 490.66666666666663 141.51146666666665 490.66666666666663 181.33333333333331s-12.266666666666666 74.93333333333334 -36.8 105.33333333333333C429.3333333333333 317.06666666666666 398.9333333333333 337.06666666666666 362.66666666666663 346.66666666666663Z"
          stroke-width="10.6667"></path>
</svg>
